<?xml version="1.0" encoding="UTF-8" standalone="no"?>
<!-- Svg Vector Icons : http://www.onlinewebfonts.com/icon -->

<svg
   version="1.1"
   x="0px"
   y="0px"
   viewBox="0 0 1000 1000"
   enable-background="new 0 0 1000 1000"
   xml:space="preserve"
   id="svg18"
   sodipodi:docname="java.svg"
   inkscape:version="1.2 (dc2aedaf03, 2022-05-15)"
   xmlns:inkscape="http://www.inkscape.org/namespaces/inkscape"
   xmlns:sodipodi="http://sodipodi.sourceforge.net/DTD/sodipodi-0.dtd"
   xmlns="http://www.w3.org/2000/svg"
   xmlns:svg="http://www.w3.org/2000/svg"><defs
   id="defs22"><linearGradient
     id="linearGradient8298"
     inkscape:swatch="solid"><stop
       style="stop-color:#000000;stop-opacity:1;"
       offset="0"
       id="stop8296" /></linearGradient></defs><sodipodi:namedview
   id="namedview20"
   pagecolor="#ffffff"
   bordercolor="#000000"
   borderopacity="0.25"
   inkscape:showpageshadow="2"
   inkscape:pageopacity="0.0"
   inkscape:pagecheckerboard="0"
   inkscape:deskcolor="#d1d1d1"
   showgrid="false"
   inkscape:zoom="0.472"
   inkscape:cx="676.90678"
   inkscape:cy="522.24576"
   inkscape:window-width="1440"
   inkscape:window-height="830"
   inkscape:window-x="-6"
   inkscape:window-y="-6"
   inkscape:window-maximized="1"
   inkscape:current-layer="g16" />
<metadata
   id="metadata2"> Svg Vector Icons : http://www.onlinewebfonts.com/icon </metadata>
<g
   id="g16"><path
     d="m 668.9,407.9 -1.1,0.8 c -0.2,0.2 -5.5,4.1 -8.3,6.3 l -12.6,10.1 16,2.5 c 1,0.2 2.5,0.3 4.7,0.5 27.4,2.4 43.7,7.2 48.2,14.3 7.9,12.3 7.4,26.1 -1.5,37.7 -10.1,13.2 -23,24.6 -37.7,37 -6.2,5.3 -13.6,9.7 -21.4,14.5 -3.8,2.3 -7.8,4.7 -11.8,7.4 l -22.7,14.7 27,-1.7 c 35.5,-2.2 84.5,-28.6 105,-56.5 12.6,-17.2 16.1,-38.2 9.2,-56.3 -6.5,-17.3 -21.4,-29.6 -40.8,-33.9 l -0.7,-0.1 c -6.1,-0.7 -12.3,-1.1 -18.6,-1.1 -18.5,0 -31.2,3.3 -31.7,3.4 z"
     id="path4"
     style="fill:#5599ff;fill-opacity:1"
     sodipodi:insensitive="true" /><path
     d="m 472.7,398.9 c 6.3,5.9 12.8,12.1 18.9,18.3 l 4.4,4.5 5.8,-4.5 c 0.9,-0.7 1.8,-1.4 2.8,-2.2 l 5.2,-4 -3.6,-5.5 c -3.9,-5.8 -7.7,-11.6 -11.6,-17.4 -8.5,-12.8 -17.3,-26 -25.8,-39.1 -23.9,-37 -21.5,-67.6 7.9,-99.3 9.9,-10.7 21.5,-20.5 32.7,-30 4,-3.4 8.1,-6.9 12.1,-10.4 31.6,-27.6 62.2,-59.4 72.7,-104.5 7,-30.2 1,-55.6 -17.9,-75.7 l -17.9,-19 5.7,25.4 c 9,39.7 -2.1,74.3 -33.8,105.6 -6.4,6.3 -13.4,12.3 -20.3,18.1 -5,4.2 -10.1,8.5 -15,13 -6.8,6.3 -13.9,12.6 -20.7,18.7 -20,18 -40.7,36.6 -59.7,56.3 -15.8,16.3 -18.8,38.8 -8.9,64.9 14,36.6 41,62.1 67,86.8 z"
     id="path6"
     style="fill:#ff6600;fill-opacity:0.786364"
     sodipodi:insensitive="true" /><path
     id="path8"
     style="fill-opacity:0.78636396;fill:#2a7fff"
     d="M 537.77148 443.33008 L 525.29883 444.2793 L 525.30078 444.30078 C 477.20083 447.80078 431.10038 451.09961 422.40039 451.09961 L 422 451.09961 C 389.40003 450.29961 379.60078 446.7 376.80078 445 C 378.30078 443.2 382.9004 438.89999 396.40039 432.5 C 406.60038 427.6 416.40078 424.10039 416.80078 423.90039 L 422 422 L 420.90039 410.09961 L 414.40039 410.09961 C 412.20039 410.09961 387.5992 416.50079 367.69922 423.30078 C 324.79926 438.00077 318.59922 448.20079 318.19922 456.30078 C 317.49922 470.90077 338.49966 479.10079 390.59961 484.30078 L 391.09961 484.30078 C 391.89961 484.30078 392.60039 484.30039 393.40039 484.40039 L 386.40039 487.90039 C 377.4004 492.40039 358.39922 508.10041 360.19922 525.40039 C 361.49922 537.90038 372.79924 546.90079 393.69922 552.30078 C 412.3992 557.10078 435.59964 559.5 462.59961 559.5 C 538.99953 559.5 623.60039 540.10039 624.40039 539.90039 L 629.90039 538.59961 L 629.90039 533 C 629.90039 530.5 629.90076 528.39959 611.80078 505.09961 L 609 501.5 L 604.5 502.59961 C 603.8 502.79961 535.40069 519 440.30078 519 C 433.30079 519 426.30038 518.89922 419.40039 518.69922 C 406.8004 518.39922 398.30078 515.49921 395.30078 510.69922 C 392.10078 505.29922 395.80078 497.5 395.80078 497.5 L 402.5 484.5 L 406.30078 484.5 C 521.90067 484.5 646.29961 449.39961 647.59961 449.09961 L 645.09961 435.19922 C 644.09961 435.29922 591.59916 439.40039 537.69922 443.40039 C 537.72352 443.37555 537.74718 443.3549 537.77148 443.33008 z " /><path
     id="path8293"
     style="fill:#ff6600;fill-opacity:0.78636396"
     d="M 683.5 165.09961 L 654.19922 168.5 C 652.19922 168.7 650.59922 168.80039 649.19922 168.90039 C 646.49922 169.10039 644.09922 169.20078 641.69922 170.30078 C 633.39923 174.00078 624.8996 177.70078 616.59961 181.30078 C 594.99963 190.70077 572.59959 200.29962 551.59961 212.09961 C 535.89963 220.9996 520.59921 235.30041 508.69922 252.40039 C 485.09924 286.20036 489.10003 322.90004 521 364.5 C 542.79998 392.99997 543.09998 397.59925 525 427.19922 C 523.4 429.79922 523.79961 432.1 524.09961 434.5 C 524.29961 435.7 524.50078 437.30078 524.80078 439.80078 L 525.29883 444.2793 L 537.77148 443.33008 C 542.24717 438.75814 546.72338 434.47824 551.09961 430.40039 C 561.0996 420.9004 570.50001 411.90038 578 401.40039 C 592.89999 380.30041 592.49998 357.1992 577 336.19922 C 571.30001 328.49923 565.6996 320.10038 558.59961 308.90039 C 544.99962 287.30041 545.59962 274.50037 561.09961 256.40039 C 570.7996 245.0004 582.80002 233.9996 598 222.59961 C 610.69999 212.99962 624.29923 204.20077 638.69922 194.80078 C 645.19921 190.50079 652.00001 186.1 659 181.5 L 683.5 165.09961 z " /><path
     d="M441.4,714.7c-63.7,0-96.5-8.6-96.8-8.7l-3.2-0.9c9.8,0.3,20.3,0.5,31.5,0.5c0,0,0,0,0,0c64.6,0,152.9-5.7,262.4-17l0.2,0c61.2-8.3,88.1-28.8,92.7-45.1c2.1-7.2,0.1-13.9-5.4-18.4l-11.3-9.4l-0.4,14.3c-2.2,3.9-20.6,13.7-75.9,24.3c-38.1,7.3-84.2,13.1-112,14.1c-10.1,0.4-20.8,0.5-31.8,0.5c-37.8,0-76.3-2.1-113.6-4.2c-8.8-0.5-17.7-1-26.5-1.4l-0.1,0c-31.2-1.1-34.3-7.1-34.3-7.1c-0.1-0.8,1.5-5.1,11.4-12.3c8-5.8,17.8-10.8,23.9-13.2l24.6-9.5l-26.1-4.2c-4.4-0.7-9.7-1.1-15.5-1.1c-25.6,0-73.3,7.6-92.7,28.1c-5.8,6.1-8.5,12.9-8.1,20.1c0,0.2,0,0.7,0,1c-0.1,3.5-0.3,10.7,6.5,17.8c10.9,11.2,37.3,18.2,80.3,21l16.8,14.2c1.5,1.3,38.7,31.8,125.6,31.8c27.1,0,56.5-3,87.4-9c52.9-10.2,151.5-38.7,208.5-63.4l-4.8-13.4C610.8,706,504.9,714.7,441.4,714.7z"
     id="path10"
     style="fill:#5599ff" /><path
     d="M545.5,582.5c-22.3,4.7-43.5,7.1-62.9,7.1c-49.6,0-74.9-15.4-81.5-20.1l-4.6-3.3L364,594.4l5.9,5.4c1.4,1.3,36.1,32.3,117.7,32.3c38,0,80.4-6.8,125.8-20.2l25.5-7.5l-91.8-22.2L545.5,582.5z"
     id="path12"
     style="fill:#5599ff;fill-opacity:1" /><path
     d="M696,847c2-25.1-5.1-33.5-30.8-32.4c-13,0.6-25.8,3.8-40,6c-1.3-5.4-2.7-11.4-4.3-18c25.1-9.1,49.4-15.4,75.3-9.2c18.1,4.3,29.9,15.5,30.5,33.9c1.2,36.3,0.3,72.7,0.3,110.4c-10-1.8-23.7,8.4-25.9-8.9c-15.2,3.9-30.4,10.2-46.1,11.4c-22.1,1.8-36.2-10-40.3-28.8c-4.7-21.3,3.9-43,23.3-50.1C656.1,854.6,675.6,851.8,696,847z M696.6,869.8c-13.9,2-25.9,2.8-37.5,5.7c-11.6,2.9-17.7,15.8-14.3,27c3.6,11.9,14,17.4,26.7,14.4c21.2-5.2,25.2-10.3,25-32.6C696.6,880.7,696.6,877.1,696.6,869.8z M458.8,937.5c-7.5,0-14.3,0-21.8,0c-1.3-3.5-2.6-7.2-4.2-11.3c-1.5,0.2-3-0.1-3.8,0.5c-12.9,9.5-26.9,14.9-43.2,14.1c-20.5-1-33.4-9.7-38.5-26.7c-5.7-19.4,0.5-41.1,18-49.9c13.4-6.8,29.1-9.2,44-12.9c6-1.5,12.5-1.1,18.7-1.5c3.3-26.4-4.7-35.9-29.6-35.4c-6.8,0.1-13.6,1.2-20.3,2.4c-6.6,1.2-13,3.1-19.5,4.7c-7.1-18.5-7.5-20.3,10.1-24c17.9-3.8,36.8-6,54.9-4.7c22.5,1.6,33.5,12.6,34.9,34.9c2.1,32.7,1.1,65.6,1.4,98.5C459.9,929.9,459.2,933.4,458.8,937.5z M428,870.1c-12.7,1.8-25,2.5-36.6,5.4c-11.8,2.9-17.2,15-13.9,27.1c2.9,11,12.4,17.5,24,14.7C430.3,910.1,432.2,905.3,428,870.1z M476.2,795.3c1.7-0.9,2.1-1.3,2.5-1.3c31.2-1,30.9-0.9,39.5,29.1c7.5,25.9,15.7,51.7,23.6,77.5c1.2,0.2,2.5,0.4,3.7,0.6c8.7-35.4,17.4-70.8,26.3-106.8c8.7,0,18.5,0,31.5,0c-7.4,28-13.7,54.7-21.6,81c-5.2,17.4-13,34-18.8,51.2c-3.2,9.6-8.9,13.1-18.4,11.6c-1.3-0.2-2.8-0.3-4.1,0c-15.4,3.2-22.4-3.5-26.6-18.5C502.3,878.2,489,837.1,476.2,795.3z M277.4,990c-4.9-6-9.5-11.6-15.3-18.6c29.3-13.7,31.7-39.2,31.3-66.8c-0.7-48.4-0.2-96.7-0.1-145.1c0-5,0-9.9,0-16.1c11.2,0,21.3,0,32.3,0c0.2,3.6,0.6,7.1,0.6,10.6c0,53.8,0.2,107.7-0.2,161.5C325.7,955,314.8,971.5,277.4,990z"
     id="path14"
     style="fill:#ff6600;fill-opacity:0.78636396" /></g>
</svg>
